<svg xmlns="http://www.w3.org/2000/svg" viewBox="0 0 120 120" width="120" height="120">
  <defs>
    <linearGradient id="bg" x1="0%" y1="0%" x2="100%" y2="100%">
      <stop offset="0%" style="stop-color:#3b82f6"/>
      <stop offset="100%" style="stop-color:#8b5cf6"/>
    </linearGradient>
  </defs>
  <circle cx="60" cy="60" r="56" fill="url(#bg)"/>
  <!-- Graph nodes -->
  <circle cx="60" cy="35" r="8" fill="#fff" opacity="0.9"/>
  <circle cx="35" cy="70" r="7" fill="#fff" opacity="0.9"/>
  <circle cx="85" cy="70" r="7" fill="#fff" opacity="0.9"/>
  <circle cx="50" cy="90" r="5" fill="#fff" opacity="0.7"/>
  <circle cx="75" cy="45" r="5" fill="#fff" opacity="0.7"/>
  <!-- Graph edges -->
  <line x1="60" y1="35" x2="35" y2="70" stroke="#fff" stroke-width="2" opacity="0.6"/>
  <line x1="60" y1="35" x2="85" y2="70" stroke="#fff" stroke-width="2" opacity="0.6"/>
  <line x1="35" y1="70" x2="85" y2="70" stroke="#fff" stroke-width="2" opacity="0.6"/>
  <line x1="35" y1="70" x2="50" y2="90" stroke="#fff" stroke-width="1.5" opacity="0.5"/>
  <line x1="60" y1="35" x2="75" y2="45" stroke="#fff" stroke-width="1.5" opacity="0.5"/>
  <line x1="75" y1="45" x2="85" y2="70" stroke="#fff" stroke-width="1.5" opacity="0.5"/>
  <!-- Evolution arrow -->
  <path d="M 95 25 Q 105 35 100 45" fill="none" stroke="#fbbf24" stroke-width="2.5" stroke-linecap="round"/>
  <polygon points="98,46 103,42 96,42" fill="#fbbf24"/>
</svg>
